<svg id="visual" viewBox="0 0 900 675" width="100%" height="100%" xmlns="http://www.w3.org/2000/svg" xmlns:xlink="http://www.w3.org/1999/xlink" version="1.1"><rect x="0" y="0" width="900" height="675" fill="#001220"></rect><path d="M0 402L21.5 405.5C43 409 86 416 128.8 429.3C171.7 442.7 214.3 462.3 257.2 463.2C300 464 343 446 385.8 435.8C428.7 425.7 471.3 423.3 514.2 431C557 438.7 600 456.3 642.8 465.5C685.7 474.7 728.3 475.3 771.2 464.8C814 454.3 857 432.7 878.5 421.8L900 411L900 676L878.5 676C857 676 814 676 771.2 676C728.3 676 685.7 676 642.8 676C600 676 557 676 514.2 676C471.3 676 428.7 676 385.8 676C343 676 300 676 257.2 676C214.3 676 171.7 676 128.8 676C86 676 43 676 21.5 676L0 676Z" fill="#fa7268"></path><path d="M0 499L21.5 502.8C43 506.7 86 514.3 128.8 509.8C171.7 505.3 214.3 488.7 257.2 484.5C300 480.3 343 488.7 385.8 498.5C428.7 508.3 471.3 519.7 514.2 511.5C557 503.3 600 475.7 642.8 472.3C685.7 469 728.3 490 771.2 500.8C814 511.7 857 512.3 878.5 512.7L900 513L900 676L878.5 676C857 676 814 676 771.2 676C728.3 676 685.7 676 642.8 676C600 676 557 676 514.2 676C471.3 676 428.7 676 385.8 676C343 676 300 676 257.2 676C214.3 676 171.7 676 128.8 676C86 676 43 676 21.5 676L0 676Z" fill="#ef5f67"></path><path d="M0 547L21.5 538.2C43 529.3 86 511.7 128.8 504C171.7 496.3 214.3 498.7 257.2 506C300 513.3 343 525.7 385.8 528C428.7 530.3 471.3 522.7 514.2 519C557 515.3 600 515.7 642.8 518.7C685.7 521.7 728.3 527.3 771.2 536.2C814 545 857 557 878.5 563L900 569L900 676L878.5 676C857 676 814 676 771.2 676C728.3 676 685.7 676 642.8 676C600 676 557 676 514.2 676C471.3 676 428.7 676 385.8 676C343 676 300 676 257.2 676C214.3 676 171.7 676 128.8 676C86 676 43 676 21.5 676L0 676Z" fill="#e34c67"></path><path d="M0 552L21.5 557.7C43 563.3 86 574.7 128.8 580.2C171.7 585.7 214.3 585.3 257.2 578.7C300 572 343 559 385.8 555C428.7 551 471.3 556 514.2 559.2C557 562.3 600 563.7 642.8 570.7C685.7 577.7 728.3 590.3 771.2 587.7C814 585 857 567 878.5 558L900 549L900 676L878.5 676C857 676 814 676 771.2 676C728.3 676 685.7 676 642.8 676C600 676 557 676 514.2 676C471.3 676 428.7 676 385.8 676C343 676 300 676 257.2 676C214.3 676 171.7 676 128.8 676C86 676 43 676 21.5 676L0 676Z" fill="#d53867"></path><path d="M0 599L21.5 601C43 603 86 607 128.8 613.3C171.7 619.7 214.3 628.3 257.2 625.5C300 622.7 343 608.3 385.8 604.8C428.7 601.3 471.3 608.7 514.2 617.3C557 626 600 636 642.8 637.2C685.7 638.3 728.3 630.7 771.2 627.8C814 625 857 627 878.5 628L900 629L900 676L878.5 676C857 676 814 676 771.2 676C728.3 676 685.7 676 642.8 676C600 676 557 676 514.2 676C471.3 676 428.7 676 385.8 676C343 676 300 676 257.2 676C214.3 676 171.7 676 128.8 676C86 676 43 676 21.5 676L0 676Z" fill="#c62368"></path></svg>