<svg id="visual" viewBox="0 0 1024 1024" width='100%' height="100%" xmlns="http://www.w3.org/2000/svg" xmlns:xlink="http://www.w3.org/1999/xlink" version="1.1"><rect x="0" y="0" width="100%" height="100%" fill="#F7CACA"></rect><path d="M0 241L8.8 285.5C17.7 330 35.3 419 53 472.5C70.7 526 88.3 544 106 543.3C123.7 542.7 141.3 523.3 159 508.3C176.7 493.3 194.3 482.7 212 446.2C229.7 409.7 247.3 347.3 265 325C282.7 302.7 300.3 320.3 318 335.5C335.7 350.7 353.3 363.3 371 370.5C388.7 377.7 406.3 379.3 423.8 383.3C441.3 387.3 458.7 393.7 476.2 392.7C493.7 391.7 511.3 383.3 529 382.8C546.7 382.3 564.3 389.7 582 370.5C599.7 351.3 617.3 305.7 635 303.8C652.7 302 670.3 344 688 346.3C705.7 348.7 723.3 311.3 741 289.8C758.7 268.3 776.3 262.7 794 264.5C811.7 266.3 829.3 275.7 847 310.7C864.7 345.7 882.3 406.3 891.2 436.7L900 467L900 601L891.2 601C882.3 601 864.7 601 847 601C829.3 601 811.7 601 794 601C776.3 601 758.7 601 741 601C723.3 601 705.7 601 688 601C670.3 601 652.7 601 635 601C617.3 601 599.7 601 582 601C564.3 601 546.7 601 529 601C511.3 601 493.7 601 476.2 601C458.7 601 441.3 601 423.8 601C406.3 601 388.7 601 371 601C353.3 601 335.7 601 318 601C300.3 601 282.7 601 265 601C247.3 601 229.7 601 212 601C194.3 601 176.7 601 159 601C141.3 601 123.7 601 106 601C88.3 601 70.7 601 53 601C35.3 601 17.7 601 8.8 601L0 601Z" fill="#571430"></path><path d="M0 393L8.8 392.2C17.7 391.3 35.3 389.7 53 397.7C70.7 405.7 88.3 423.3 106 425.8C123.7 428.3 141.3 415.7 159 406.3C176.7 397 194.3 391 212 402.3C229.7 413.7 247.3 442.3 265 439.8C282.7 437.3 300.3 403.7 318 372.8C335.7 342 353.3 314 371 307.3C388.7 300.7 406.3 315.3 423.8 313.8C441.3 312.3 458.7 294.7 476.2 285.5C493.7 276.3 511.3 275.7 529 276.8C546.7 278 564.3 281 582 318C599.7 355 617.3 426 635 430.2C652.7 434.3 670.3 371.7 688 336.2C705.7 300.7 723.3 292.3 741 299.5C758.7 306.7 776.3 329.3 794 357C811.7 384.7 829.3 417.3 847 414.3C864.7 411.3 882.3 372.7 891.2 353.3L900 334L900 601L891.2 601C882.3 601 864.7 601 847 601C829.3 601 811.7 601 794 601C776.3 601 758.7 601 741 601C723.3 601 705.7 601 688 601C670.3 601 652.7 601 635 601C617.3 601 599.7 601 582 601C564.3 601 546.7 601 529 601C511.3 601 493.7 601 476.2 601C458.7 601 441.3 601 423.8 601C406.3 601 388.7 601 371 601C353.3 601 335.7 601 318 601C300.3 601 282.7 601 265 601C247.3 601 229.7 601 212 601C194.3 601 176.7 601 159 601C141.3 601 123.7 601 106 601C88.3 601 70.7 601 53 601C35.3 601 17.7 601 8.8 601L0 601Z" fill="#64133c"></path><path d="M0 308L8.8 316.2C17.7 324.3 35.3 340.7 53 346.5C70.7 352.3 88.3 347.7 106 359C123.7 370.3 141.3 397.7 159 426.5C176.7 455.3 194.3 485.7 212 496C229.7 506.3 247.3 496.7 265 475.5C282.7 454.3 300.3 421.7 318 414.2C335.7 406.7 353.3 424.3 371 448.5C388.7 472.7 406.3 503.3 423.8 482.5C441.3 461.7 458.7 389.3 476.2 380.3C493.7 371.3 511.3 425.7 529 450.8C546.7 476 564.3 472 582 449.7C599.7 427.3 617.3 386.7 635 359C652.7 331.3 670.3 316.7 688 310.3C705.7 304 723.3 306 741 324C758.7 342 776.3 376 794 409C811.7 442 829.3 474 847 487.7C864.7 501.3 882.3 496.7 891.2 494.3L900 492L900 601L891.2 601C882.3 601 864.7 601 847 601C829.3 601 811.7 601 794 601C776.3 601 758.7 601 741 601C723.3 601 705.7 601 688 601C670.3 601 652.7 601 635 601C617.3 601 599.7 601 582 601C564.3 601 546.7 601 529 601C511.3 601 493.7 601 476.2 601C458.7 601 441.3 601 423.8 601C406.3 601 388.7 601 371 601C353.3 601 335.7 601 318 601C300.3 601 282.7 601 265 601C247.3 601 229.7 601 212 601C194.3 601 176.7 601 159 601C141.3 601 123.7 601 106 601C88.3 601 70.7 601 53 601C35.3 601 17.7 601 8.8 601L0 601Z" fill="#6f114a"></path><path d="M0 565L8.8 542.3C17.7 519.7 35.3 474.3 53 468.8C70.7 463.3 88.3 497.7 106 499.5C123.7 501.3 141.3 470.7 159 460.2C176.7 449.7 194.3 459.3 212 462C229.7 464.7 247.3 460.3 265 467.8C282.7 475.3 300.3 494.7 318 486C335.7 477.3 353.3 440.7 371 413.5C388.7 386.3 406.3 368.7 423.8 377.8C441.3 387 458.7 423 476.2 420C493.7 417 511.3 375 529 364.7C546.7 354.3 564.3 375.7 582 403.7C599.7 431.7 617.3 466.3 635 460.3C652.7 454.3 670.3 407.7 688 384.2C705.7 360.7 723.3 360.3 741 370.5C758.7 380.7 776.3 401.3 794 415.2C811.7 429 829.3 436 847 450.8C864.7 465.7 882.3 488.3 891.2 499.7L900 511L900 601L891.2 601C882.3 601 864.7 601 847 601C829.3 601 811.7 601 794 601C776.3 601 758.7 601 741 601C723.3 601 705.7 601 688 601C670.3 601 652.7 601 635 601C617.3 601 599.7 601 582 601C564.3 601 546.7 601 529 601C511.3 601 493.7 601 476.2 601C458.7 601 441.3 601 423.8 601C406.3 601 388.7 601 371 601C353.3 601 335.7 601 318 601C300.3 601 282.7 601 265 601C247.3 601 229.7 601 212 601C194.3 601 176.7 601 159 601C141.3 601 123.7 601 106 601C88.3 601 70.7 601 53 601C35.3 601 17.7 601 8.8 601L0 601Z" fill="#7a1159"></path><path d="M0 504L8.8 507.7C17.7 511.3 35.3 518.7 53 494.5C70.7 470.3 88.3 414.7 106 403.7C123.7 392.7 141.3 426.3 159 433.3C176.7 440.3 194.3 420.7 212 405.7C229.7 390.7 247.3 380.3 265 391.3C282.7 402.3 300.3 434.7 318 456C335.7 477.3 353.3 487.7 371 472.3C388.7 457 406.3 416 423.8 427C441.3 438 458.7 501 476.2 511C493.7 521 511.3 478 529 468.8C546.7 459.7 564.3 484.3 582 491.7C599.7 499 617.3 489 635 493C652.7 497 670.3 515 688 523.2C705.7 531.3 723.3 529.7 741 506C758.7 482.3 776.3 436.7 794 411.5C811.7 386.3 829.3 381.7 847 389.8C864.7 398 882.3 419 891.2 429.5L900 440L900 601L891.2 601C882.3 601 864.7 601 847 601C829.3 601 811.7 601 794 601C776.3 601 758.7 601 741 601C723.3 601 705.7 601 688 601C670.3 601 652.7 601 635 601C617.3 601 599.7 601 582 601C564.3 601 546.7 601 529 601C511.3 601 493.7 601 476.2 601C458.7 601 441.3 601 423.8 601C406.3 601 388.7 601 371 601C353.3 601 335.7 601 318 601C300.3 601 282.7 601 265 601C247.3 601 229.7 601 212 601C194.3 601 176.7 601 159 601C141.3 601 123.7 601 106 601C88.3 601 70.7 601 53 601C35.3 601 17.7 601 8.8 601L0 601Z" fill="#83146b"></path><path d="M0 446L8.8 440.5C17.7 435 35.3 424 53 428.5C70.7 433 88.3 453 106 461.5C123.7 470 141.3 467 159 455.2C176.7 443.3 194.3 422.7 212 433.3C229.7 444 247.3 486 265 496.2C282.7 506.3 300.3 484.7 318 482.3C335.7 480 353.3 497 371 507.5C388.7 518 406.3 522 423.8 504.3C441.3 486.7 458.7 447.3 476.2 445.8C493.7 444.3 511.3 480.7 529 495.2C546.7 509.7 564.3 502.3 582 505.2C599.7 508 617.3 521 635 518.7C652.7 516.3 670.3 498.7 688 484.8C705.7 471 723.3 461 741 472C758.7 483 776.3 515 794 521.3C811.7 527.7 829.3 508.3 847 492.2C864.7 476 882.3 463 891.2 456.5L900 450L900 601L891.2 601C882.3 601 864.7 601 847 601C829.3 601 811.7 601 794 601C776.3 601 758.7 601 741 601C723.3 601 705.7 601 688 601C670.3 601 652.7 601 635 601C617.3 601 599.7 601 582 601C564.3 601 546.7 601 529 601C511.3 601 493.7 601 476.2 601C458.7 601 441.3 601 423.8 601C406.3 601 388.7 601 371 601C353.3 601 335.7 601 318 601C300.3 601 282.7 601 265 601C247.3 601 229.7 601 212 601C194.3 601 176.7 601 159 601C141.3 601 123.7 601 106 601C88.3 601 70.7 601 53 601C35.3 601 17.7 601 8.8 601L0 601Z" fill="#8a197e"></path><path d="M0 458L8.8 478.5C17.7 499 35.3 540 53 557.3C70.7 574.7 88.3 568.3 106 561.7C123.7 555 141.3 548 159 531.5C176.7 515 194.3 489 212 483.7C229.7 478.3 247.3 493.7 265 497.2C282.7 500.7 300.3 492.3 318 494.3C335.7 496.3 353.3 508.7 371 514.3C388.7 520 406.3 519 423.8 511.3C441.3 503.7 458.7 489.3 476.2 498.2C493.7 507 511.3 539 529 532.2C546.7 525.3 564.3 479.7 582 478.8C599.7 478 617.3 522 635 540.7C652.7 559.3 670.3 552.7 688 548.8C705.7 545 723.3 544 741 549.5C758.7 555 776.3 567 794 566.3C811.7 565.7 829.3 552.3 847 536C864.7 519.7 882.3 500.3 891.2 490.7L900 481L900 601L891.2 601C882.3 601 864.7 601 847 601C829.3 601 811.7 601 794 601C776.3 601 758.7 601 741 601C723.3 601 705.7 601 688 601C670.3 601 652.7 601 635 601C617.3 601 599.7 601 582 601C564.3 601 546.7 601 529 601C511.3 601 493.7 601 476.2 601C458.7 601 441.3 601 423.8 601C406.3 601 388.7 601 371 601C353.3 601 335.7 601 318 601C300.3 601 282.7 601 265 601C247.3 601 229.7 601 212 601C194.3 601 176.7 601 159 601C141.3 601 123.7 601 106 601C88.3 601 70.7 601 53 601C35.3 601 17.7 601 8.8 601L0 601Z" fill="#8e2193"></path><path d="M0 498L8.8 493.5C17.7 489 35.3 480 53 472.2C70.7 464.3 88.3 457.7 106 473.3C123.7 489 141.3 527 159 545.2C176.7 563.3 194.3 561.7 212 543.7C229.7 525.7 247.3 491.3 265 481.7C282.7 472 300.3 487 318 505.5C335.7 524 353.3 546 371 543.3C388.7 540.7 406.3 513.3 423.8 501.5C441.3 489.7 458.7 493.3 476.2 500.2C493.7 507 511.3 517 529 530.7C546.7 544.3 564.3 561.7 582 550.3C599.7 539 617.3 499 635 498.7C652.7 498.3 670.3 537.7 688 555.2C705.7 572.7 723.3 568.3 741 559.5C758.7 550.7 776.3 537.3 794 533.7C811.7 530 829.3 536 847 528.5C864.7 521 882.3 500 891.2 489.5L900 479L900 601L891.2 601C882.3 601 864.7 601 847 601C829.3 601 811.7 601 794 601C776.3 601 758.7 601 741 601C723.3 601 705.7 601 688 601C670.3 601 652.7 601 635 601C617.3 601 599.7 601 582 601C564.3 601 546.7 601 529 601C511.3 601 493.7 601 476.2 601C458.7 601 441.3 601 423.8 601C406.3 601 388.7 601 371 601C353.3 601 335.7 601 318 601C300.3 601 282.7 601 265 601C247.3 601 229.7 601 212 601C194.3 601 176.7 601 159 601C141.3 601 123.7 601 106 601C88.3 601 70.7 601 53 601C35.3 601 17.7 601 8.8 601L0 601Z" fill="#902ca9"></path><path d="M0 581L8.8 569.2C17.7 557.3 35.3 533.7 53 523.3C70.7 513 88.3 516 106 516.8C123.7 517.7 141.3 516.3 159 512.3C176.7 508.3 194.3 501.7 212 495.7C229.7 489.7 247.3 484.3 265 489C282.7 493.7 300.3 508.3 318 516.3C335.7 524.3 353.3 525.7 371 520.5C388.7 515.3 406.3 503.7 423.8 507.3C441.3 511 458.7 530 476.2 537C493.7 544 511.3 539 529 536.5C546.7 534 564.3 534 582 535.8C599.7 537.7 617.3 541.3 635 545C652.7 548.7 670.3 552.3 688 550.5C705.7 548.7 723.3 541.3 741 528.5C758.7 515.7 776.3 497.3 794 488.8C811.7 480.3 829.3 481.7 847 495C864.7 508.3 882.3 533.7 891.2 546.3L900 559L900 601L891.2 601C882.3 601 864.7 601 847 601C829.3 601 811.7 601 794 601C776.3 601 758.7 601 741 601C723.3 601 705.7 601 688 601C670.3 601 652.7 601 635 601C617.3 601 599.7 601 582 601C564.3 601 546.7 601 529 601C511.3 601 493.7 601 476.2 601C458.7 601 441.3 601 423.8 601C406.3 601 388.7 601 371 601C353.3 601 335.7 601 318 601C300.3 601 282.7 601 265 601C247.3 601 229.7 601 212 601C194.3 601 176.7 601 159 601C141.3 601 123.7 601 106 601C88.3 601 70.7 601 53 601C35.3 601 17.7 601 8.8 601L0 601Z" fill="#8d38c1"></path><path d="M0 549L8.8 550.7C17.7 552.3 35.3 555.7 53 562.5C70.7 569.3 88.3 579.7 106 572.2C123.7 564.7 141.3 539.3 159 537.8C176.7 536.3 194.3 558.7 212 572.3C229.7 586 247.3 591 265 590C282.7 589 300.3 582 318 574.7C335.7 567.3 353.3 559.7 371 559.8C388.7 560 406.3 568 423.8 561.2C441.3 554.3 458.7 532.7 476.2 523.8C493.7 515 511.3 519 529 531.8C546.7 544.7 564.3 566.3 582 577.5C599.7 588.7 617.3 589.3 635 578.7C652.7 568 670.3 546 688 543.2C705.7 540.3 723.3 556.7 741 567.8C758.7 579 776.3 585 794 581.7C811.7 578.3 829.3 565.7 847 559.2C864.7 552.7 882.3 552.3 891.2 552.2L900 552L900 601L891.2 601C882.3 601 864.7 601 847 601C829.3 601 811.7 601 794 601C776.3 601 758.7 601 741 601C723.3 601 705.7 601 688 601C670.3 601 652.7 601 635 601C617.3 601 599.7 601 582 601C564.3 601 546.7 601 529 601C511.3 601 493.7 601 476.2 601C458.7 601 441.3 601 423.8 601C406.3 601 388.7 601 371 601C353.3 601 335.7 601 318 601C300.3 601 282.7 601 265 601C247.3 601 229.7 601 212 601C194.3 601 176.7 601 159 601C141.3 601 123.7 601 106 601C88.3 601 70.7 601 53 601C35.3 601 17.7 601 8.8 601L0 601Z" fill="#8544da"></path><path d="M0 595L8.8 593.7C17.7 592.3 35.3 589.7 53 586C70.7 582.3 88.3 577.7 106 572.3C123.7 567 141.3 561 159 563.7C176.7 566.3 194.3 577.7 212 583.3C229.7 589 247.3 589 265 587.2C282.7 585.3 300.3 581.7 318 574.2C335.7 566.7 353.3 555.3 371 557.8C388.7 560.3 406.3 576.7 423.8 576.3C441.3 576 458.7 559 476.2 555.7C493.7 552.3 511.3 562.7 529 570.7C546.7 578.7 564.3 584.3 582 585.3C599.7 586.3 617.3 582.7 635 580.7C652.7 578.7 670.3 578.3 688 577.8C705.7 577.3 723.3 576.7 741 573.8C758.7 571 776.3 566 794 566.8C811.7 567.7 829.3 574.3 847 572.8C864.7 571.3 882.3 561.7 891.2 556.8L900 552L900 601L891.2 601C882.3 601 864.7 601 847 601C829.3 601 811.7 601 794 601C776.3 601 758.7 601 741 601C723.3 601 705.7 601 688 601C670.3 601 652.7 601 635 601C617.3 601 599.7 601 582 601C564.3 601 546.7 601 529 601C511.3 601 493.7 601 476.2 601C458.7 601 441.3 601 423.8 601C406.3 601 388.7 601 371 601C353.3 601 335.7 601 318 601C300.3 601 282.7 601 265 601C247.3 601 229.7 601 212 601C194.3 601 176.7 601 159 601C141.3 601 123.7 601 106 601C88.3 601 70.7 601 53 601C35.3 601 17.7 601 8.8 601L0 601Z" fill="#7552f3"></path></svg>