<svg id="visual" viewBox="0 0 540 960" width="540" height="960" xmlns="http://www.w3.org/2000/svg" xmlns:xlink="http://www.w3.org/1999/xlink" version="1.1"><rect x="0" y="0" width="540" height="960" fill="#F7CACA"></rect><path d="M0 387L5.3 458.2C10.7 529.3 21.3 671.7 32 757.2C42.7 842.7 53.3 871.3 63.8 870.3C74.3 869.3 84.7 838.7 95.2 814.7C105.7 790.7 116.3 773.3 127 714.7C137.7 656 148.3 556 159 520.2C169.7 484.3 180.3 512.7 190.8 537C201.3 561.3 211.7 581.7 222.2 593.2C232.7 604.7 243.3 607.3 254 613.8C264.7 620.3 275.3 630.7 286 629.2C296.7 627.7 307.3 614.3 317.8 613.5C328.3 612.7 338.7 624.3 349.2 593.5C359.7 562.7 370.3 489.3 381 486.5C391.7 483.7 402.3 551.3 413 555.2C423.7 559 434.3 499 444.8 464.5C455.3 430 465.7 421 476.2 424C486.7 427 497.3 442 508 498C518.7 554 529.3 651 534.7 699.5L540 748L540 961L534.7 961C529.3 961 518.7 961 508 961C497.3 961 486.7 961 476.2 961C465.7 961 455.3 961 444.8 961C434.3 961 423.7 961 413 961C402.3 961 391.7 961 381 961C370.3 961 359.7 961 349.2 961C338.7 961 328.3 961 317.8 961C307.3 961 296.7 961 286 961C275.3 961 264.7 961 254 961C243.3 961 232.7 961 222.2 961C211.7 961 201.3 961 190.8 961C180.3 961 169.7 961 159 961C148.3 961 137.7 961 127 961C116.3 961 105.7 961 95.2 961C84.7 961 74.3 961 63.8 961C53.3 961 42.7 961 32 961C21.3 961 10.7 961 5.3 961L0 961Z" fill="#571430"></path><path d="M0 629L5.3 627.8C10.7 626.7 21.3 624.3 32 637.2C42.7 650 53.3 678 63.8 681.8C74.3 685.7 84.7 665.3 95.2 650.5C105.7 635.7 116.3 626.3 127 644.7C137.7 663 148.3 709 159 705C169.7 701 180.3 647 190.8 597.5C201.3 548 211.7 503 222.2 492.3C232.7 481.7 243.3 505.3 254 503C264.7 500.7 275.3 472.3 286 457.5C296.7 442.7 307.3 441.3 317.8 443.3C328.3 445.3 338.7 450.7 349.2 510C359.7 569.3 370.3 682.7 381 689C391.7 695.3 402.3 594.7 413 538C423.7 481.3 434.3 468.7 444.8 480.3C455.3 492 465.7 528 476.2 572.2C486.7 616.3 497.3 668.7 508 664C518.7 659.3 529.3 597.7 534.7 566.8L540 536L540 961L534.7 961C529.3 961 518.7 961 508 961C497.3 961 486.7 961 476.2 961C465.7 961 455.3 961 444.8 961C434.3 961 423.7 961 413 961C402.3 961 391.7 961 381 961C370.3 961 359.7 961 349.2 961C338.7 961 328.3 961 317.8 961C307.3 961 296.7 961 286 961C275.3 961 264.7 961 254 961C243.3 961 232.7 961 222.2 961C211.7 961 201.3 961 190.8 961C180.3 961 169.7 961 159 961C148.3 961 137.7 961 127 961C116.3 961 105.7 961 95.2 961C84.7 961 74.3 961 63.8 961C53.3 961 42.7 961 32 961C21.3 961 10.7 961 5.3 961L0 961Z" fill="#64133c"></path><path d="M0 493L5.3 506C10.7 519 21.3 545 32 554.5C42.7 564 53.3 557 63.8 575.2C74.3 593.3 84.7 636.7 95.2 682.8C105.7 729 116.3 778 127 794.5C137.7 811 148.3 795 159 761C169.7 727 180.3 675 190.8 663.2C201.3 651.3 211.7 679.7 222.2 718.2C232.7 756.7 243.3 805.3 254 772C264.7 738.7 275.3 623.3 286 609.2C296.7 595 307.3 682 317.8 722.3C328.3 762.7 338.7 756.3 349.2 720.7C359.7 685 370.3 620 381 575.7C391.7 531.3 402.3 507.7 413 497.3C423.7 487 434.3 490 444.8 518.7C455.3 547.3 465.7 601.7 476.2 654.5C486.7 707.3 497.3 758.7 508 780.5C518.7 802.3 529.3 794.7 534.7 790.8L540 787L540 961L534.7 961C529.3 961 518.7 961 508 961C497.3 961 486.7 961 476.2 961C465.7 961 455.3 961 444.8 961C434.3 961 423.7 961 413 961C402.3 961 391.7 961 381 961C370.3 961 359.7 961 349.2 961C338.7 961 328.3 961 317.8 961C307.3 961 296.7 961 286 961C275.3 961 264.7 961 254 961C243.3 961 232.7 961 222.2 961C211.7 961 201.3 961 190.8 961C180.3 961 169.7 961 159 961C148.3 961 137.7 961 127 961C116.3 961 105.7 961 95.2 961C84.7 961 74.3 961 63.8 961C53.3 961 42.7 961 32 961C21.3 961 10.7 961 5.3 961L0 961Z" fill="#6f114a"></path><path d="M0 905L5.3 868.7C10.7 832.3 21.3 759.7 32 750.8C42.7 742 53.3 797 63.8 800C74.3 803 84.7 754 95.2 737.2C105.7 720.3 116.3 735.7 127 740C137.7 744.3 148.3 737.7 159 749.7C169.7 761.7 180.3 792.3 190.8 778.5C201.3 764.7 211.7 706.3 222.2 662.8C232.7 619.3 243.3 590.7 254 605C264.7 619.3 275.3 676.7 286 671.8C296.7 667 307.3 600 317.8 583.7C328.3 567.3 338.7 601.7 349.2 646.5C359.7 691.3 370.3 746.7 381 737C391.7 727.3 402.3 652.7 413 615C423.7 577.3 434.3 576.7 444.8 593C455.3 609.3 465.7 642.7 476.2 665C486.7 687.3 497.3 698.7 508 722.5C518.7 746.3 529.3 782.7 534.7 800.8L540 819L540 961L534.7 961C529.3 961 518.7 961 508 961C497.3 961 486.7 961 476.2 961C465.7 961 455.3 961 444.8 961C434.3 961 423.7 961 413 961C402.3 961 391.7 961 381 961C370.3 961 359.7 961 349.2 961C338.7 961 328.3 961 317.8 961C307.3 961 296.7 961 286 961C275.3 961 264.7 961 254 961C243.3 961 232.7 961 222.2 961C211.7 961 201.3 961 190.8 961C180.3 961 169.7 961 159 961C148.3 961 137.7 961 127 961C116.3 961 105.7 961 95.2 961C84.7 961 74.3 961 63.8 961C53.3 961 42.7 961 32 961C21.3 961 10.7 961 5.3 961L0 961Z" fill="#7a1159"></path><path d="M0 806L5.3 812C10.7 818 21.3 830 32 791.5C42.7 753 53.3 664 63.8 646.5C74.3 629 84.7 683 95.2 694.3C105.7 705.7 116.3 674.3 127 650.3C137.7 626.3 148.3 609.7 159 627C169.7 644.3 180.3 695.7 190.8 729.8C201.3 764 211.7 781 222.2 756.5C232.7 732 243.3 666 254 683.5C264.7 701 275.3 802 286 818.2C296.7 834.3 307.3 765.7 317.8 751C328.3 736.3 338.7 775.7 349.2 787.3C359.7 799 370.3 783 381 789.3C391.7 795.7 402.3 824.3 413 837.3C423.7 850.3 434.3 847.7 444.8 809.7C455.3 771.7 465.7 698.3 476.2 658.2C486.7 618 497.3 611 508 624.2C518.7 637.3 529.3 670.7 534.7 687.3L540 704L540 961L534.7 961C529.3 961 518.7 961 508 961C497.3 961 486.7 961 476.2 961C465.7 961 455.3 961 444.8 961C434.3 961 423.7 961 413 961C402.3 961 391.7 961 381 961C370.3 961 359.7 961 349.2 961C338.7 961 328.3 961 317.8 961C307.3 961 296.7 961 286 961C275.3 961 264.7 961 254 961C243.3 961 232.7 961 222.2 961C211.7 961 201.3 961 190.8 961C180.3 961 169.7 961 159 961C148.3 961 137.7 961 127 961C116.3 961 105.7 961 95.2 961C84.7 961 74.3 961 63.8 961C53.3 961 42.7 961 32 961C21.3 961 10.7 961 5.3 961L0 961Z" fill="#83146b"></path><path d="M0 714L5.3 705.3C10.7 696.7 21.3 679.3 32 686.7C42.7 694 53.3 726 63.8 739.5C74.3 753 84.7 748 95.2 728.8C105.7 709.7 116.3 676.3 127 693.5C137.7 710.7 148.3 778.3 159 794.8C169.7 811.3 180.3 776.7 190.8 772.8C201.3 769 211.7 796 222.2 812.7C232.7 829.3 243.3 835.7 254 807.3C264.7 779 275.3 716 286 713.7C296.7 711.3 307.3 769.7 317.8 792.8C328.3 816 338.7 804 349.2 808.5C359.7 813 370.3 834 381 830.3C391.7 826.7 402.3 798.3 413 776.3C423.7 754.3 434.3 738.7 444.8 756.2C455.3 773.7 465.7 824.3 476.2 834.3C486.7 844.3 497.3 813.7 508 788C518.7 762.3 529.3 741.7 534.7 731.3L540 721L540 961L534.7 961C529.3 961 518.7 961 508 961C497.3 961 486.7 961 476.2 961C465.7 961 455.3 961 444.8 961C434.3 961 423.7 961 413 961C402.3 961 391.7 961 381 961C370.3 961 359.7 961 349.2 961C338.7 961 328.3 961 317.8 961C307.3 961 296.7 961 286 961C275.3 961 264.7 961 254 961C243.3 961 232.7 961 222.2 961C211.7 961 201.3 961 190.8 961C180.3 961 169.7 961 159 961C148.3 961 137.7 961 127 961C116.3 961 105.7 961 95.2 961C84.7 961 74.3 961 63.8 961C53.3 961 42.7 961 32 961C21.3 961 10.7 961 5.3 961L0 961Z" fill="#8a197e"></path><path d="M0 734L5.3 766.7C10.7 799.3 21.3 864.7 32 892.2C42.7 919.7 53.3 909.3 63.8 898.8C74.3 888.3 84.7 877.7 95.2 851.3C105.7 825 116.3 783 127 774.5C137.7 766 148.3 791 159 796.7C169.7 802.3 180.3 788.7 190.8 791.7C201.3 794.7 211.7 814.3 222.2 823.3C232.7 832.3 243.3 830.7 254 818.3C264.7 806 275.3 783 286 797.2C296.7 811.3 307.3 862.7 317.8 851.8C328.3 841 338.7 768 349.2 766.8C359.7 765.7 370.3 836.3 381 866C391.7 895.7 402.3 884.3 413 878C423.7 871.7 434.3 870.3 444.8 879.3C455.3 888.3 465.7 907.7 476.2 906.7C486.7 905.7 497.3 884.3 508 858.3C518.7 832.3 529.3 801.7 534.7 786.3L540 771L540 961L534.7 961C529.3 961 518.7 961 508 961C497.3 961 486.7 961 476.2 961C465.7 961 455.3 961 444.8 961C434.3 961 423.7 961 413 961C402.3 961 391.7 961 381 961C370.3 961 359.7 961 349.2 961C338.7 961 328.3 961 317.8 961C307.3 961 296.7 961 286 961C275.3 961 264.7 961 254 961C243.3 961 232.7 961 222.2 961C211.7 961 201.3 961 190.8 961C180.3 961 169.7 961 159 961C148.3 961 137.7 961 127 961C116.3 961 105.7 961 95.2 961C84.7 961 74.3 961 63.8 961C53.3 961 42.7 961 32 961C21.3 961 10.7 961 5.3 961L0 961Z" fill="#8e2193"></path><path d="M0 798L5.3 790.8C10.7 783.7 21.3 769.3 32 756.7C42.7 744 53.3 733 63.8 758C74.3 783 84.7 844 95.2 873.2C105.7 902.3 116.3 899.7 127 870.8C137.7 842 148.3 787 159 771.3C169.7 755.7 180.3 779.3 190.8 808.8C201.3 838.3 211.7 873.7 222.2 869.5C232.7 865.3 243.3 821.7 254 802.7C264.7 783.7 275.3 789.3 286 800.3C296.7 811.3 307.3 827.7 317.8 849.7C328.3 871.7 338.7 899.3 349.2 881.3C359.7 863.3 370.3 799.7 381 799.2C391.7 798.7 402.3 861.3 413 889.3C423.7 917.3 434.3 910.7 444.8 896.5C455.3 882.3 465.7 860.7 476.2 854.5C486.7 848.3 497.3 857.7 508 845.8C518.7 834 529.3 801 534.7 784.5L540 768L540 961L534.7 961C529.3 961 518.7 961 508 961C497.3 961 486.7 961 476.2 961C465.7 961 455.3 961 444.8 961C434.3 961 423.7 961 413 961C402.3 961 391.7 961 381 961C370.3 961 359.7 961 349.2 961C338.7 961 328.3 961 317.8 961C307.3 961 296.7 961 286 961C275.3 961 264.7 961 254 961C243.3 961 232.7 961 222.2 961C211.7 961 201.3 961 190.8 961C180.3 961 169.7 961 159 961C148.3 961 137.7 961 127 961C116.3 961 105.7 961 95.2 961C84.7 961 74.3 961 63.8 961C53.3 961 42.7 961 32 961C21.3 961 10.7 961 5.3 961L0 961Z" fill="#902ca9"></path><path d="M0 930L5.3 911.2C10.7 892.3 21.3 854.7 32 838.2C42.7 821.7 53.3 826.3 63.8 827.5C74.3 828.7 84.7 826.3 95.2 820C105.7 813.7 116.3 803.3 127 794C137.7 784.7 148.3 776.3 159 783.7C169.7 791 180.3 814 190.8 826.5C201.3 839 211.7 841 222.2 832.8C232.7 824.7 243.3 806.3 254 812.5C264.7 818.7 275.3 849.3 286 860.5C296.7 871.7 307.3 863.3 317.8 859.2C328.3 855 338.7 855 349.2 858C359.7 861 370.3 867 381 872.8C391.7 878.7 402.3 884.3 413 881.5C423.7 878.7 434.3 867.3 444.8 846.8C455.3 826.3 465.7 796.7 476.2 782.8C486.7 769 497.3 771 508 792.2C518.7 813.3 529.3 853.7 534.7 873.8L540 894L540 961L534.7 961C529.3 961 518.7 961 508 961C497.3 961 486.7 961 476.2 961C465.7 961 455.3 961 444.8 961C434.3 961 423.7 961 413 961C402.3 961 391.7 961 381 961C370.3 961 359.7 961 349.2 961C338.7 961 328.3 961 317.8 961C307.3 961 296.7 961 286 961C275.3 961 264.7 961 254 961C243.3 961 232.7 961 222.2 961C211.7 961 201.3 961 190.8 961C180.3 961 169.7 961 159 961C148.3 961 137.7 961 127 961C116.3 961 105.7 961 95.2 961C84.7 961 74.3 961 63.8 961C53.3 961 42.7 961 32 961C21.3 961 10.7 961 5.3 961L0 961Z" fill="#8d38c1"></path><path d="M0 879L5.3 881.8C10.7 884.7 21.3 890.3 32 901.3C42.7 912.3 53.3 928.7 63.8 916.5C74.3 904.3 84.7 863.7 95.2 861.2C105.7 858.7 116.3 894.3 127 916.2C137.7 938 148.3 946 159 944.5C169.7 943 180.3 932 190.8 920.3C201.3 908.7 211.7 896.3 222.2 896.5C232.7 896.7 243.3 909.3 254 898.3C264.7 887.3 275.3 852.7 286 838.7C296.7 824.7 307.3 831.3 317.8 851.8C328.3 872.3 338.7 906.7 349.2 924.3C359.7 942 370.3 943 381 926C391.7 909 402.3 874 413 869.5C423.7 865 434.3 891 444.8 909C455.3 927 465.7 937 476.2 931.8C486.7 926.7 497.3 906.3 508 896C518.7 885.7 529.3 885.3 534.7 885.2L540 885L540 961L534.7 961C529.3 961 518.7 961 508 961C497.3 961 486.7 961 476.2 961C465.7 961 455.3 961 444.8 961C434.3 961 423.7 961 413 961C402.3 961 391.7 961 381 961C370.3 961 359.7 961 349.2 961C338.7 961 328.3 961 317.8 961C307.3 961 296.7 961 286 961C275.3 961 264.7 961 254 961C243.3 961 232.7 961 222.2 961C211.7 961 201.3 961 190.8 961C180.3 961 169.7 961 159 961C148.3 961 137.7 961 127 961C116.3 961 105.7 961 95.2 961C84.7 961 74.3 961 63.8 961C53.3 961 42.7 961 32 961C21.3 961 10.7 961 5.3 961L0 961Z" fill="#8544da"></path><path d="M0 953L5.3 950.8C10.7 948.7 21.3 944.3 32 938.3C42.7 932.3 53.3 924.7 63.8 916.2C74.3 907.7 84.7 898.3 95.2 902.7C105.7 907 116.3 925 127 933.8C137.7 942.7 148.3 942.3 159 939.3C169.7 936.3 180.3 930.7 190.8 918.7C201.3 906.7 211.7 888.3 222.2 892.3C232.7 896.3 243.3 922.7 254 922.3C264.7 922 275.3 895 286 889.7C296.7 884.3 307.3 900.7 317.8 913.5C328.3 926.3 338.7 935.7 349.2 937.3C359.7 939 370.3 933 381 929.8C391.7 926.7 402.3 926.3 413 925.7C423.7 925 434.3 924 444.8 919.5C455.3 915 465.7 907 476.2 908.2C486.7 909.3 497.3 919.7 508 917.2C518.7 914.7 529.3 899.3 534.7 891.7L540 884L540 961L534.7 961C529.3 961 518.7 961 508 961C497.3 961 486.7 961 476.2 961C465.7 961 455.3 961 444.8 961C434.3 961 423.7 961 413 961C402.3 961 391.7 961 381 961C370.3 961 359.7 961 349.2 961C338.7 961 328.3 961 317.8 961C307.3 961 296.7 961 286 961C275.3 961 264.7 961 254 961C243.3 961 232.7 961 222.2 961C211.7 961 201.3 961 190.8 961C180.3 961 169.7 961 159 961C148.3 961 137.7 961 127 961C116.3 961 105.7 961 95.2 961C84.7 961 74.3 961 63.8 961C53.3 961 42.7 961 32 961C21.3 961 10.7 961 5.3 961L0 961Z" fill="#7552f3"></path></svg>